<?xml version="1.0" standalone="no"?>
<!DOCTYPE svg PUBLIC "-//W3C//DTD SVG 20010904//EN"
 "http://www.w3.org/TR/2001/REC-SVG-20010904/DTD/svg10.dtd">
<svg version="1.0" xmlns="http://www.w3.org/2000/svg"
 width="500.000000pt" height="500.000000pt" viewBox="0 0 500.000000 500.000000"
 preserveAspectRatio="xMidYMid meet">
<metadata>
Created by potrace 1.16, written by Peter Selinger 2001-2019
</metadata>
<g transform="translate(0.000000,500.000000) scale(0.100000,-0.100000)"
fill="#000000" stroke="none">
<path d="M1080 4993 c-303 -50 -544 -174 -740 -380 -168 -175 -282 -404 -325
-650 -22 -128 -22 -2798 0 -2926 89 -508 472 -906 975 -1014 80 -17 172 -18
1510 -18 1338 0 1430 1 1510 18 503 107 886 506 975 1014 22 128 22 2798 0
2926 -43 245 -158 476 -325 650 -172 181 -364 290 -640 364 -60 16 -172 17
-1490 19 -784 1 -1436 0 -1450 -3z m1033 -1430 c8 -21 106 -279 217 -573 238
-630 257 -671 276 -617 12 35 17 978 5 1055 -12 77 -34 112 -82 129 -31 11
-25 12 61 13 52 0 158 7 235 15 189 19 258 19 349 -5 175 -45 278 -167 293
-351 17 -199 -107 -373 -302 -423 -107 -28 -267 -17 -394 28 l-43 16 4 -228
c3 -200 6 -232 23 -267 14 -28 30 -43 52 -50 18 -6 35 -14 39 -18 4 -4 -125
-7 -287 -6 -214 1 -285 4 -259 11 152 44 154 70 29 403 l-84 224 -6 -132 c-7
-149 -27 -235 -72 -321 -61 -114 -153 -184 -274 -205 -114 -21 -203 15 -257
102 -24 39 -30 62 -34 126 -4 69 -1 86 22 136 38 83 136 175 307 287 80 53
153 108 163 123 23 35 18 69 -12 73 -16 3 -38 -13 -86 -63 -48 -50 -70 -66
-86 -63 -52 7 -49 22 66 327 60 160 112 291 115 291 4 0 14 -17 22 -37z"/>
<path d="M2860 3574 c-14 -3 -49 -12 -77 -20 l-53 -15 0 -339 0 -339 56 -17
c73 -21 208 -33 276 -24 153 21 264 144 290 321 27 180 -65 350 -220 410 -56
21 -211 34 -272 23z"/>
<path d="M2036 3429 c-3 -8 -37 -99 -76 -203 -39 -104 -70 -198 -68 -209 6
-38 30 -30 87 30 65 68 93 87 121 78 48 -15 31 -90 -33 -151 -23 -23 -73 -63
-112 -89 -165 -115 -234 -208 -243 -326 -10 -149 65 -239 199 -239 138 0 243
111 295 310 21 81 24 282 4 360 -12 49 -156 439 -166 449 -2 2 -6 -2 -8 -10z"/>
</g>
</svg>
